<?xml version="1.0" encoding="utf-8"?>
<svg version="1.1" xmlns:xlink="http://www.w3.org/1999/xlink" width="20px" height="18px" xmlns="http://www.w3.org/2000/svg">
  <g transform="matrix(1 0 0 1 -1335 -266 )">
    <path d="M 20 8.99813935458101  C 20 9.38143479877817  19.6813207729456 9.69030392863871  19.285851379841 9.69030392863871  L 0.714148597838175 9.69030392863871  C 0.318679227054417 9.69030392863871  0 9.38143479877817  0 8.99813935458101  C 0 8.61484391038385  0.318679204733598 8.30597478052334  0.714148597838175 8.30597478052334  L 19.2858514021623 8.30597478052334  C 19.6813207729456 8.30597478052334  20 8.61484391038385  20 8.99813935458101  Z M 19.2820118960917 15.923506277827  C 19.285851379841 17.0659499854749  18.3221347535005 18  17.1434056309695 18  L 12.8546745825138 18  C 12.4592052117305 18  12.1405259846765 17.6911308701395  12.1405259846765 17.3078354259423  C 12.1405259846765 16.9245399817451  12.4592051894092 16.6156708518846  12.8546745825138 16.6156708518846  L 17.1395661025786 16.6156708518846  C 17.5350354733619 16.6156708518846  17.8537147004163 16.3068017220241  17.8537147004163 15.923506277827  L 17.8537147004163 12.4626834508061  C 17.8537147004163 12.0793880282427  18.1723939051499 11.7705188767484  18.567863298254 11.7705188767484  C 18.9633326913586 11.7705188767484  19.2820118960917 12.0793880066089  19.2820118960917 12.4626834508061  L 19.2820118960917 15.923506277827  Z M 7.14148591141566 17.3078354692099  C 7.14148588909484 17.6911308701395  6.82280668436124 18  6.42733729125712 18  L 2.8565943467097 18  C 1.67402571810817 18  0.714148575516901 17.0696712763129  0.714148575516901 15.9235062994607  L 0.714148575516901 12.4626834724399  C 0.714148575516901 12.0793880498765  1.0328277802505 11.7705188983822  1.42829717335508 11.7705188983822  C 1.8237665664592 11.7705188983822  2.1424457711928 12.0793880498765  2.1424457711928 12.4626834940736  L 2.1424457711928 15.9235063210945  C 2.1424457711928 16.3068017436579  2.46496448199605 16.6156708951522  2.85659436903052 16.6156708951522  L 6.42733731357794 16.6156708951522  C 6.82280668436124 16.6156708951522  7.14148591141566 16.9245400250127  7.14148591141566 17.3078354692099  Z M 2.14244574887152 5.53731654919392  C 2.1424457711928 5.92061197175732  1.8237665664592 6.22948110161784  1.42829717335508 6.22948110161784  C 1.03282780257132 6.22948110161784  0.714148575516901 5.92061197175732  0.714148575516901 5.53731652756014  L 0.714148575516901 2.07649370053929  C 0.714148575516901 0.930328723687126  1.67402571810817 0  2.8565943467097 0  L 6.42733729125712 0  C 6.82280666204042 0  7.14148588909484 0.30886912986054  7.14148588909484 0.692164574057699  C 7.14148588909484 1.07546001825486  6.82280668436124 1.3843291481154  6.42733729125712 1.3843291481154  L 2.8565943467097 1.3843291481154  C 2.46496448199605 1.3843291481154  2.14244574887152 1.69691959044769  2.14244574887152 2.07649372217307  L 2.14244574887152 5.53731654919392  Z M 19.2820118737709 5.53731652756014  C 19.285851379841 5.92061197175732  18.9671721751079 6.22948110161784  18.5717028043241 6.22948110161784  C 18.1762334335408 6.22948110161784  17.8575542064864 5.92061197175732  17.8575542064864 5.53731652756014  L 17.8575542064864 2.07649370053929  C 17.8575542064864 1.69691959044769  17.5388750017532 1.38432912648159  17.1434056086487 1.38432912648159  L 12.8546745825138 1.3843291481154  C 12.4592052117305 1.3843291481154  12.1405259846765 1.07546001825486  12.1405259846765 0.692164574057671  C 12.1405259846765 0.30886912986054  12.4592051894092 0  12.8546745825138 0  L 17.1395661025786 0  C 18.3221347311796 0  19.2820118737709 0.930328723687126  19.2820118737709 2.07649370053929  L 19.2820118737709 5.53731652756014  Z " fill-rule="nonzero" fill="#ffffff" stroke="none" transform="matrix(1 0 0 1 1335 266 )" />
  </g>
</svg>