<?xml version="1.0" encoding="utf-8"?>
<svg version="1.1" xmlns:xlink="http://www.w3.org/1999/xlink" width="28px" height="28px" xmlns="http://www.w3.org/2000/svg">
  <g transform="matrix(1 0 0 1 -1041 -785 )">
    <path d="M 8.9917829293686 24.00000000893  C 7.88526722491337 24.00000000893  6.9936089554734 24.892473115975  6.9936089554734 26.0000000044648  C 6.9936089554734 27.1075268929549  7.88526722491337 28  8.9917829293686 28  C 10.0982986338239 28  10.9899569032638 27.1075268929549  10.9899569032638 26.0000000044648  C 10.9899569032638 24.892473115975  10.0982986338239 24.00000000893  8.9917829293686 24.00000000893  Z M 22.984372209834 24.00000000893  C 21.8778565053787 24.00000000893  20.9861982359387 24.892473115975  20.9861982359387 26.0000000044648  C 20.9861982359387 27.1075268929549  21.8778565053787 28  22.984372209834 28  C 24.0908879142892 28  24.9825461837292 27.1075268929549  24.9825461837292 26.0000000044648  C 24.9825461837292 24.892473115975  24.0855164510904 24.00000000893  22.984372209834 24.00000000893  Z M 27.9744356969866 6.44086023075329  C 28.0872358620797 5.47849463301816  27.8240355080893 4.54838711031334  27.2385490484161 3.89247311597501  C 26.7282626988049 3.31182795295626  26.0246046420666 3.0000000089301  25.2618608336358 3  L 5.24252100842568 3  L 5.17269236156242 2.59139787106722  C 4.99543498157815 1.13440862289144  3.71703336033736 0  2.26137435911234 0  L 0.999087002560997 0  C 0.445829165946705 0  0 0.446236553522454  0 1.00000001339515  C 0 1.55376347326774  0.44582913472 2.00000002679019  0.999087002560997 2.00000002679019  L 2.25600289591357 2.00000002679019  C 2.69108916668946 2.00000002679019  3.13691830140946 2.39784948339457  3.19063265235661 2.8817204525767  L 4.15749103185861 8.4623656200605  L 5.85486462795915 20.4032258150935  C 6.03212200794342 21.8602150632697  7.29440933326808 22.9999999955348  8.73932543932232 23  L 24.9825461525025 23  C 25.5358039891168 22.9999999955348  25.9816331550634 22.5537634420125  25.9816331550634 21.9999999821398  C 25.9816331550634 21.4462365222672  25.5358040203435 20.9999999687446  24.9825461525025 21  L 8.73395403857699 21  C 8.30961063174517 20.9999999999999  7.89063868811211 20.6075268840249  7.83155287396622 20.1397849367303  L 7.66503838915272 18.9731182700638  L 23.5161443185601 17.9946236504406  C 24.955689023869 17.9946236504406  26.2233477811656 16.8548387181754  26.3898622659791 15.4516129075467  L 27.9744356969866 6.44086023075329  Z " fill-rule="nonzero" fill="#ffffff" stroke="none" transform="matrix(1 0 0 1 1041 785 )" />
  </g>
</svg>