<?xml version="1.0" encoding="utf-8"?>
<svg version="1.1" xmlns:xlink="http://www.w3.org/1999/xlink" width="60px" height="60px" xmlns="http://www.w3.org/2000/svg">
  <g transform="matrix(1 0 0 1 -16 -15 )">
    <path d="M 46 15  C 62.8 15  76 28.2  76 45  C 76 61.8  62.8 75  46 75  C 29.2 75  16 61.8  16 45  C 16 28.2  29.2 15  46 15  Z " fill-rule="nonzero" fill="#ffffff" stroke="none" />
    <path d="M 46 15.5  C 62.52 15.5  75.5 28.48  75.5 45  C 75.5 61.52  62.52 74.5  46 74.5  C 29.48 74.5  16.5 61.52  16.5 45  C 16.5 28.48  29.48 15.5  46 15.5  Z " stroke-width="1" stroke="#cccccc" fill="none" />
  </g>
</svg>