<?xml version="1.0" encoding="utf-8"?>
<svg version="1.1" xmlns:xlink="http://www.w3.org/1999/xlink" width="16px" height="20px" xmlns="http://www.w3.org/2000/svg">
  <g transform="matrix(1 0 0 1 -257 -42 )">
    <path d="M 16 7.8594739882252  C 16.0000000227255 3.52466885724876  12.4114341820716 0  7.99804545605486 0  C 3.58856584065394 0  0 3.52466885724876  0 7.8556344821462  C 0 12.0368592806793  7.16931348280165 19.4624688141272  7.47422429264428 19.7773085134929  C 7.61104325510219 19.9193703276993  7.80258978890772 20  8.00195456667068 20  C 8.00586367728662 20  8.01368189851838 20  8.0175910091342 20  C 8.22086489751297 20  8.41632054193457 19.9078517871414  8.54923039377642 19.754271454698  L 11.0315172256458 16.962948749597  C 14.3308086989205 12.9967364254131  16 9.93280861013626  16 7.8594739882252  Z M 11.6335206695503 7.8556344821462  C 11.6335206695503 9.82914187904072  10.0073296079709 11.4263774346638  7.99804545605486 11.4263774346638  C 5.98876130413864 11.4263774346638  4.36257024255928 9.82914187904072  4.36257024255928 7.8556344821462  C 4.36257024255928 5.88212708525173  5.98876130413864 4.28489152962861  7.99804545605486 4.28489152962861  C 10.0073296079709 4.28489152962861  11.6335206695503 5.88212708525173  11.6335206695503 7.8556344821462  Z " fill-rule="nonzero" fill="#cccccc" stroke="none" transform="matrix(1 0 0 1 257 42 )" />
  </g>
</svg>