<?xml version="1.0" encoding="utf-8"?>
<svg version="1.1" xmlns:xlink="http://www.w3.org/1999/xlink" width="25px" height="17px" xmlns="http://www.w3.org/2000/svg">
  <g transform="matrix(1 0 0 1 -33 -36 )">
    <path d="M 23.8313008130082 17  L 11.0518292682926 17  L 7.46840261483567 17  L 0.736788617886077 17  C 0.537241700542154 17  0.364556868225122 16.8820615630511  0.218734120934869 16.6461846891534  C 0.0729113736450699 16.4103078152557  0 16.1309799382716  0 15.8082010582011  C 0 15.4854221781304  0.0729113736450699 15.2060943011463  0.218734120934869 14.9702174272486  L 5.37625444613843 6.62762483465622  C 5.52207719342812 6.39174796075827  5.69476202574526 6.27380952380963  5.89430894308953 6.27380952380963  C 6.09385586043345 6.27380952380963  6.26654069275048 6.39174796075827  6.41236344004074 6.62762483465622  L 8.74270688925026 10.3970832518476  L 14.8286648882113 0.560763888888914  C 15.059969935637 0.186921296296305  15.3338838075881 0  15.6504065040651 0  C 15.9669292005422 0  16.2408430724932 0.186921296296305  16.4721481199186 0.560763888888914  L 24.6530424288616 13.7829861111111  C 24.8843474762873 14.1568287037037  25 14.599537037037  25 15.1111111111111  C 25 15.6226851851852  24.8843474762873 16.0653935185185  24.6530424288616 16.4392361111111  C 24.4217373814363 16.8130787037037  24.1478235094852 17  23.8313008130082 17  Z " fill-rule="nonzero" fill="#ffffff" stroke="none" transform="matrix(1 0 0 1 33 36 )" />
  </g>
</svg>