<?xml version="1.0" encoding="utf-8"?>
<svg version="1.1" xmlns:xlink="http://www.w3.org/1999/xlink" width="24px" height="24px" xmlns="http://www.w3.org/2000/svg">
  <defs>
    <linearGradient gradientUnits="userSpaceOnUse" x1="3.80384757729337" y1="-2.19615242270663" x2="20.1961524227066" y2="26.1961524227066" id="LinearGradient55">
      <stop id="Stop56" stop-color="#44d28b" offset="0" />
      <stop id="Stop57" stop-color="#34cca5" offset="1" />
    </linearGradient>
  </defs>
  <g transform="matrix(1 0 0 1 -56 0 )">
    <path d="M 23.9999995399991 11.9991668578675  C 24.0008289649725 8.79272400325769  22.7527513947034 5.77915091545441  20.4846002316813 3.51294245633207  C 18.2181540200938 1.24761341903698  15.2059486248808 0  12.000852245717 0  C 8.79575586655324 0  5.78267494487875 1.24761341903698  3.51622873329126 3.51294245633207  C 1.24895309673059 5.77915091545441  0 8.79355711848334  0 12  C 0 15.2072759967423  1.24895309673059 18.2208490845456  3.51539930831774 20.4870575436679  C 5.78184551990523 22.752386580963  8.7949264147922 24  12.0000228207435 24  C 15.2051192266951 24  18.2182001215821 22.752386580963  20.4837708067078 20.4870575436679  C 22.7519219697302 18.2200159693199  24.0008750664608 15.2055634596894  23.9999995399991 11.9991668578675  Z M 18.8585742498136 12.0000462796947  C 18.8585742498136 12.4753474086523  18.4753266583201 12.8610407163844  18.0013014059259 12.8610407163844  L 12.8580790149042 12.8610407163844  L 12.8580790149042 18.0271461756065  C 12.8580790149042 18.5032804466964  12.4740480463502 18.8881868919909  12.000852245717 18.8881868919909  C 11.5276564450838 18.8881868919909  11.1436254765298 18.5033267263912  11.1436254765298 18.0271461756065  L 11.1436254765298 12.8610407163844  L 6.00044916020886 12.8610407163844  C 5.52725335957564 12.8610407163844  5.14322239102165 12.4753011289576  5.14322239102165 12  C 5.14322239102165 11.5246988710425  5.52725335957564 11.1389592836156  6.00044916020886 11.1389592836156  L 11.1436715512302 11.1389592836156  L 11.1436715512302 5.97290010408821  C 11.1436715512302 5.49759897513079  11.5277025197845 5.11185938770385  12.0008983204174 5.11185938770385  C 12.4740941210507 5.11185938770385  12.8581250896049 5.49759897513079  12.8581250896049 5.97290010408821  L 12.8581250896049 11.1390055633103  L 18.0013474806262 11.1390055633103  C 18.4753727330205 11.1390055633103  18.8585742498136 11.5247451507372  18.8585742498136 12.0000462796947  Z " fill-rule="nonzero" fill="url(#LinearGradient55)" stroke="none" transform="matrix(1 0 0 1 56 0 )" />
  </g>
</svg>