<?xml version="1.0" encoding="utf-8"?>
<svg version="1.1" xmlns:xlink="http://www.w3.org/1999/xlink" width="24px" height="24px" xmlns="http://www.w3.org/2000/svg">
  <g>
    <path d="M 24 12  C 24 18.6274838709677  18.6274838709678 24  12 24  C 5.37251612903219 24  0 18.6274838709677  0 12  C 0 5.37251612903231  5.37251612903219 0  12 0  C 18.6274838709678 0  24 5.37251612903231  24 12  Z M 22.5 12  C 22.5 6.20090322580648  17.7990967741935 1.50000000000003  12 1.50000000000003  C 6.20090322580648 1.50000000000003  1.5 6.20090322580648  1.5 12  C 1.5 17.7990967741935  6.20090322580648 22.5  12 22.5  C 17.7990967741935 22.5  22.5 17.7990967741935  22.5 12  Z M 17.6218064516129 12  C 17.6218064516129 12.4045161290323  17.293935483871 12.7323870967742  16.8894193548388 12.7323870967742  L 7.11058064516118 12.7323870967742  C 6.706064516129 12.7323870967742  6.37819354838712 12.4045161290323  6.37819354838712 12  C 6.37819354838712 11.5954838709677  6.706064516129 11.2676129032258  7.11058064516118 11.2676129032258  L 16.8894193548388 11.2676129032258  C 17.293935483871 11.2676129032258  17.6218064516129 11.5954838709677  17.6218064516129 12  Z " fill-rule="nonzero" fill="#cccccc" stroke="none" />
  </g>
</svg>