<?xml version="1.0" encoding="utf-8"?>
<svg version="1.1" xmlns:xlink="http://www.w3.org/1999/xlink" width="73px" height="73px" xmlns="http://www.w3.org/2000/svg">
  <g transform="matrix(1 0 0 1 -84 -189 )">
    <path d="M 120.5 189  C 140.94 189  157 205.06  157 225.5  C 157 245.94  140.94 262  120.5 262  C 100.06 262  84 245.94  84 225.5  C 84 205.06  100.06 189  120.5 189  Z " fill-rule="nonzero" fill="#ffffff" stroke="none" />
    <path d="M 120.5 189.5  C 140.66 189.5  156.5 205.34  156.5 225.5  C 156.5 245.66  140.66 261.5  120.5 261.5  C 100.34 261.5  84.5 245.66  84.5 225.5  C 84.5 205.34  100.34 189.5  120.5 189.5  Z " stroke-width="1" stroke="#cccccc" fill="none" />
  </g>
</svg>