<?xml version="1.0" encoding="utf-8"?>
<svg version="1.1" xmlns:xlink="http://www.w3.org/1999/xlink" width="10px" height="72px" preserveAspectRatio="xMidYMin meet" viewBox="1069 189  8 72" xmlns="http://www.w3.org/2000/svg">
  <defs>
    <mask fill="white" id="clip72">
      <path d="M 1004.5 180  L 1037.5 180  L 1037.5 208  L 1004.5 208  Z M 892 180  L 1090 180  L 1090 278  L 892 278  Z " fill-rule="evenodd" />
    </mask>
  </defs>
  <path d="M 904 194  L 1068 194  A 5 5 0 0 1 1073 199 L 1073 259  " stroke-width="2" stroke="#0099cc" fill="none" mask="url(#clip72)" />
  <path d="M 905.5 190.5  A 3.5 3.5 0 0 0 902 194 A 3.5 3.5 0 0 0 905.5 197.5 A 3.5 3.5 0 0 0 909 194 A 3.5 3.5 0 0 0 905.5 190.5 Z M 1065 251.6  L 1073 261  L 1081 251.6  L 1073 255.2  L 1065 251.6  Z " fill-rule="nonzero" fill="#0099cc" stroke="none" mask="url(#clip72)" />
</svg>