<?xml version="1.0" encoding="utf-8"?>
<svg version="1.1" xmlns:xlink="http://www.w3.org/1999/xlink" width="34px" height="34px" preserveAspectRatio="xMinYMid meet" viewBox="424 178  34 32" xmlns="http://www.w3.org/2000/svg">
  <path d="M 376 312  L 395 312  A 5 5 0 0 0 400 307 L 400 199  A 5 5 0 0 1 405 194 L 441 194  " stroke-width="2" stroke="#0099cc" fill="none" />
  <path d="M 377.5 308.5  A 3.5 3.5 0 0 0 374 312 A 3.5 3.5 0 0 0 377.5 315.5 A 3.5 3.5 0 0 0 381 312 A 3.5 3.5 0 0 0 377.5 308.5 Z M 433.6 202  L 443 194  L 433.6 186  L 437.2 194  L 433.6 202  Z " fill-rule="nonzero" fill="#0099cc" stroke="none" />
</svg>