<?xml version="1.0" encoding="utf-8"?>
<svg version="1.1" xmlns:xlink="http://www.w3.org/1999/xlink" width="34px" height="34px" preserveAspectRatio="xMinYMid meet" viewBox="1761 296  34 32" xmlns="http://www.w3.org/2000/svg">
  <path d="M 1448 464  L 1743 464  A 5 5 0 0 0 1748 459 L 1748 317  A 5 5 0 0 1 1753 312 L 1778 312  " stroke-width="2" stroke="#0099cc" fill="none" />
  <path d="M 1449.5 460.5  A 3.5 3.5 0 0 0 1446 464 A 3.5 3.5 0 0 0 1449.5 467.5 A 3.5 3.5 0 0 0 1453 464 A 3.5 3.5 0 0 0 1449.5 460.5 Z M 1770.6 320  L 1780 312  L 1770.6 304  L 1774.2 312  L 1770.6 320  Z " fill-rule="nonzero" fill="#0099cc" stroke="none" />
</svg>