<?xml version="1.0" encoding="utf-8"?>
<svg version="1.1" xmlns:xlink="http://www.w3.org/1999/xlink" width="10px" height="162px" preserveAspectRatio="xMidYMin meet" viewBox="1196 307  8 162" xmlns="http://www.w3.org/2000/svg">
  <path d="M 1181 312  L 1195 312  A 5 5 0 0 1 1200 317 L 1200 459  A 5 5 0 0 0 1205 464 L 1231 464  " stroke-width="2" stroke="#0099cc" fill="none" />
  <path d="M 1182.5 308.5  A 3.5 3.5 0 0 0 1179 312 A 3.5 3.5 0 0 0 1182.5 315.5 A 3.5 3.5 0 0 0 1186 312 A 3.5 3.5 0 0 0 1182.5 308.5 Z M 1223.6 472  L 1233 464  L 1223.6 456  L 1227.2 464  L 1223.6 472  Z " fill-rule="nonzero" fill="#0099cc" stroke="none" />
</svg>