<?xml version="1.0" encoding="utf-8"?>
<svg version="1.1" xmlns:xlink="http://www.w3.org/1999/xlink" width="223px" height="125px" xmlns="http://www.w3.org/2000/svg">
  <g transform="matrix(1 0 0 1 -311 -1204 )">
    <path d="M 321.5 1328.5  L 533.5 1328.5  L 533.5 1214.5  L 528.5 1214.5  L 528.5 1209.5  L 523.5 1209.5  L 523.5 1204.5  L 311.5 1204.5  L 311.5 1318.5  L 316.5 1318.5  L 316.5 1323.5  L 321.5 1323.5  L 321.5 1328.5  Z " fill-rule="nonzero" fill="#ffffff" stroke="none" />
    <path d="M 321.5 1328.5  L 533.5 1328.5  L 533.5 1214.5  L 528.5 1214.5  L 528.5 1209.5  L 523.5 1209.5  L 523.5 1204.5  L 311.5 1204.5  L 311.5 1318.5  L 316.5 1318.5  L 316.5 1323.5  L 321.5 1323.5  L 321.5 1328.5  Z " stroke-width="1" stroke="#cccccc" fill="none" />
    <path d="M 528.5 1215  L 528.5 1323.5  L 322 1323.5  M 523.5 1210  L 523.5 1318.5  L 317 1318.5  " stroke-width="1" stroke="#cccccc" fill="none" />
  </g>
</svg>