<?xml version="1.0" encoding="utf-8"?>
<svg version="1.1" xmlns:xlink="http://www.w3.org/1999/xlink" width="223px" height="143px" xmlns="http://www.w3.org/2000/svg">
  <g transform="matrix(1 0 0 1 -310 -1534 )">
    <path d="M 320.5 1676.5  L 532.5 1676.5  L 532.5 1544.5  L 527.5 1544.5  L 527.5 1539.5  L 522.5 1539.5  L 522.5 1534.5  L 310.5 1534.5  L 310.5 1666.5  L 315.5 1666.5  L 315.5 1671.5  L 320.5 1671.5  L 320.5 1676.5  Z " fill-rule="nonzero" fill="#ffffff" stroke="none" />
    <path d="M 320.5 1676.5  L 532.5 1676.5  L 532.5 1544.5  L 527.5 1544.5  L 527.5 1539.5  L 522.5 1539.5  L 522.5 1534.5  L 310.5 1534.5  L 310.5 1666.5  L 315.5 1666.5  L 315.5 1671.5  L 320.5 1671.5  L 320.5 1676.5  Z " stroke-width="1" stroke="#cccccc" fill="none" />
    <path d="M 527.5 1545  L 527.5 1671.5  L 321 1671.5  M 522.5 1540  L 522.5 1666.5  L 316 1666.5  " stroke-width="1" stroke="#cccccc" fill="none" />
  </g>
</svg>