<?xml version="1.0" encoding="utf-8"?>
<svg version="1.1" xmlns:xlink="http://www.w3.org/1999/xlink" width="10px" height="67px" preserveAspectRatio="xMidYMin meet" viewBox="705 1174  8 67" xmlns="http://www.w3.org/2000/svg">
  <defs>
    <mask fill="white" id="clip79">
      <path d="M 692.5 1191  L 725.5 1191  L 725.5 1219  L 692.5 1219  Z M 692 1164  L 726 1164  L 726 1253  L 692 1253  Z " fill-rule="evenodd" />
    </mask>
  </defs>
  <path d="M 709 1191  L 709 1176  M 709 1219  L 709 1234  " stroke-width="2" stroke="#0099cc" fill="none" />
  <path d="M 709 1174  A 3.5 3.5 0 0 0 705.5 1177.5 A 3.5 3.5 0 0 0 709 1181 A 3.5 3.5 0 0 0 712.5 1177.5 A 3.5 3.5 0 0 0 709 1174 Z M 701 1226.6  L 709 1236  L 717 1226.6  L 709 1230.2  L 701 1226.6  Z " fill-rule="nonzero" fill="#0099cc" stroke="none" mask="url(#clip79)" />
</svg>