<?xml version="1.0" encoding="utf-8"?>
<svg version="1.1" xmlns:xlink="http://www.w3.org/1999/xlink" width="10px" height="79px" preserveAspectRatio="xMidYMin meet" viewBox="1897 1626  8 79" xmlns="http://www.w3.org/2000/svg">
  <path d="M 1901 1628  L 1901 1695  A 5 5 0 0 1 1896 1700 L 1434 1700  A 5 5 0 0 0 1429 1705 L 1429 1786  " stroke-width="2" stroke="#0099cc" fill="none" />
  <path d="M 1901 1626  A 3.5 3.5 0 0 0 1897.5 1629.5 A 3.5 3.5 0 0 0 1901 1633 A 3.5 3.5 0 0 0 1904.5 1629.5 A 3.5 3.5 0 0 0 1901 1626 Z M 1421 1778.6  L 1429 1788  L 1437 1778.6  L 1429 1782.2  L 1421 1778.6  Z " fill-rule="nonzero" fill="#0099cc" stroke="none" />
</svg>