<?xml version="1.0" encoding="utf-8"?>
<svg version="1.1" xmlns:xlink="http://www.w3.org/1999/xlink" width="10px" height="93px" preserveAspectRatio="xMidYMin meet" viewBox="2518 1695  8 93" xmlns="http://www.w3.org/2000/svg">
  <path d="M 1901 1628  L 1901 1695  A 5 5 0 0 0 1906 1700 L 2517 1700  A 5 5 0 0 1 2522 1705 L 2522 1786  " stroke-width="2" stroke="#0099cc" fill="none" />
  <path d="M 1901 1626  A 3.5 3.5 0 0 0 1897.5 1629.5 A 3.5 3.5 0 0 0 1901 1633 A 3.5 3.5 0 0 0 1904.5 1629.5 A 3.5 3.5 0 0 0 1901 1626 Z M 2514 1778.6  L 2522 1788  L 2530 1778.6  L 2522 1782.2  L 2514 1778.6  Z " fill-rule="nonzero" fill="#0099cc" stroke="none" />
</svg>