<?xml version="1.0" encoding="utf-8"?>
<svg version="1.1" xmlns:xlink="http://www.w3.org/1999/xlink" width="10px" height="196px" preserveAspectRatio="xMidYMin meet" viewBox="1425 2348  8 196" xmlns="http://www.w3.org/2000/svg">
  <defs>
    <mask fill="white" id="clip88">
      <path d="M 1412.5 2429  L 1445.5 2429  L 1445.5 2457  L 1412.5 2457  Z M 1412 2338  L 1446 2338  L 1446 2556  L 1412 2556  Z " fill-rule="evenodd" />
    </mask>
  </defs>
  <path d="M 1429 2429  L 1429 2350  M 1429 2457  L 1429 2537  " stroke-width="2" stroke="#0099cc" fill="none" />
  <path d="M 1429 2348  A 3.5 3.5 0 0 0 1425.5 2351.5 A 3.5 3.5 0 0 0 1429 2355 A 3.5 3.5 0 0 0 1432.5 2351.5 A 3.5 3.5 0 0 0 1429 2348 Z M 1421 2529.6  L 1429 2539  L 1437 2529.6  L 1429 2533.2  L 1421 2529.6  Z " fill-rule="nonzero" fill="#0099cc" stroke="none" mask="url(#clip88)" />
</svg>