<?xml version="1.0" encoding="utf-8"?>
<svg version="1.1" xmlns:xlink="http://www.w3.org/1999/xlink" width="10px" height="133px" preserveAspectRatio="xMidYMin meet" viewBox="706 2705  8 133" xmlns="http://www.w3.org/2000/svg">
  <path d="M 1429 2601  L 1429 2705  A 5 5 0 0 1 1424 2710 L 715 2710  A 5 5 0 0 0 710 2715 L 710 2836  " stroke-width="2" stroke="#0099cc" fill="none" />
  <path d="M 1429 2599  A 3.5 3.5 0 0 0 1425.5 2602.5 A 3.5 3.5 0 0 0 1429 2606 A 3.5 3.5 0 0 0 1432.5 2602.5 A 3.5 3.5 0 0 0 1429 2599 Z M 702 2828.6  L 710 2838  L 718 2828.6  L 710 2832.2  L 702 2828.6  Z " fill-rule="nonzero" fill="#0099cc" stroke="none" />
</svg>