<?xml version="1.0" encoding="utf-8"?>
<svg version="1.1" xmlns:xlink="http://www.w3.org/1999/xlink" width="209px" height="10px" preserveAspectRatio="xMinYMid meet" viewBox="2590 2068  209 8" xmlns="http://www.w3.org/2000/svg">
  <defs>
    <mask fill="white" id="clip96">
      <path d="M 2777.5 2056  L 2810.5 2056  L 2810.5 2084  L 2777.5 2084  Z M 2580 2052  L 3016 2052  L 3016 2086  L 2580 2086  Z " fill-rule="evenodd" />
    </mask>
  </defs>
  <path d="M 2592 2072  L 2792.5 2072  A 1.5 1.5 0 0 0 2794 2070.5 A 1.5 1.5 0 0 1 2795.5 2069 L 2997 2069  " stroke-width="2" stroke="#0099cc" fill="none" mask="url(#clip96)" />
  <path d="M 2593.5 2068.5  A 3.5 3.5 0 0 0 2590 2072 A 3.5 3.5 0 0 0 2593.5 2075.5 A 3.5 3.5 0 0 0 2597 2072 A 3.5 3.5 0 0 0 2593.5 2068.5 Z M 2989.6 2077  L 2999 2069  L 2989.6 2061  L 2993.2 2069  L 2989.6 2077  Z " fill-rule="nonzero" fill="#0099cc" stroke="none" mask="url(#clip96)" />
</svg>