<?xml version="1.0" encoding="utf-8"?>
<svg version="1.1" xmlns:xlink="http://www.w3.org/1999/xlink" width="21px" height="20px" preserveAspectRatio="xMinYMid meet" viewBox="403 242  21 18" xmlns="http://www.w3.org/2000/svg">
  <path d="M 548 469  L 485 469  A 5 5 0 0 1 480 464 L 480 256  A 5 5 0 0 0 475 251 L 412 251  " stroke-width="2" stroke="#0099cc" fill="none" />
  <path d="M 540.6 477  L 550 469  L 540.6 461  L 544.2 469  L 540.6 477  Z M 413.5 247.5  A 3.5 3.5 0 0 0 410 251 A 3.5 3.5 0 0 0 413.5 254.5 A 3.5 3.5 0 0 0 417 251 A 3.5 3.5 0 0 0 413.5 247.5 Z " fill-rule="nonzero" fill="#0099cc" stroke="none" />
</svg>