<?xml version="1.0" encoding="utf-8"?>
<svg version="1.1" xmlns:xlink="http://www.w3.org/1999/xlink" width="34px" height="34px" preserveAspectRatio="xMinYMid meet" viewBox="531 1112  34 32" xmlns="http://www.w3.org/2000/svg">
  <path d="M 422 658  L 475 658  A 5 5 0 0 1 480 663 L 480 1123  A 5 5 0 0 0 485 1128 L 548 1128  " stroke-width="2" stroke="#0099cc" fill="none" />
  <path d="M 423.5 654.5  A 3.5 3.5 0 0 0 420 658 A 3.5 3.5 0 0 0 423.5 661.5 A 3.5 3.5 0 0 0 427 658 A 3.5 3.5 0 0 0 423.5 654.5 Z M 540.6 1136  L 550 1128  L 540.6 1120  L 544.2 1128  L 540.6 1136  Z " fill-rule="nonzero" fill="#0099cc" stroke="none" />
</svg>