<?xml version="1.0" encoding="utf-8"?>
<svg version="1.1" xmlns:xlink="http://www.w3.org/1999/xlink" width="22px" height="22px" xmlns="http://www.w3.org/2000/svg">
  <g transform="matrix(1 0 0 1 -311 -691 )">
    <path d="M 322 691  C 328.16 691  333 695.84  333 702  C 333 708.16  328.16 713  322 713  C 315.84 713  311 708.16  311 702  C 311 695.84  315.84 691  322 691  Z " fill-rule="nonzero" fill="#ffffff" stroke="none" />
    <path d="M 322 691.5  C 327.88 691.5  332.5 696.12  332.5 702  C 332.5 707.88  327.88 712.5  322 712.5  C 316.12 712.5  311.5 707.88  311.5 702  C 311.5 696.12  316.12 691.5  322 691.5  Z " stroke-width="1" stroke="#cccccc" fill="none" />
  </g>
</svg>