<?xml version="1.0" encoding="utf-8"?>
<svg version="1.1" xmlns:xlink="http://www.w3.org/1999/xlink" width="34px" height="34px" preserveAspectRatio="xMinYMid meet" viewBox="17 1514  34 32" xmlns="http://www.w3.org/2000/svg">
  <path d="M 53 748  L 25 748  A 5 5 0 0 0 20 753 L 20 1525  A 5 5 0 0 0 25 1530 L 34 1530  " stroke-width="2" stroke="#0099cc" fill="none" />
  <path d="M 51.5 744.5  A 3.5 3.5 0 0 0 48 748 A 3.5 3.5 0 0 0 51.5 751.5 A 3.5 3.5 0 0 0 55 748 A 3.5 3.5 0 0 0 51.5 744.5 Z M 26.6 1538  L 36 1530  L 26.6 1522  L 30.2 1530  L 26.6 1538  Z " fill-rule="nonzero" fill="#0099cc" stroke="none" />
</svg>