<?xml version="1.0" encoding="utf-8"?>
<svg version="1.1" xmlns:xlink="http://www.w3.org/1999/xlink" width="21px" height="20px" preserveAspectRatio="xMinYMid meet" viewBox="966 804  21 18" xmlns="http://www.w3.org/2000/svg">
  <path d="M 975 813  L 1029 813  A 5 5 0 0 0 1034 808 L 1034 499  A 5 5 0 0 1 1039 494 L 1094 494  " stroke-width="2" stroke="#0099cc" fill="none" />
  <path d="M 976.5 809.5  A 3.5 3.5 0 0 0 973 813 A 3.5 3.5 0 0 0 976.5 816.5 A 3.5 3.5 0 0 0 980 813 A 3.5 3.5 0 0 0 976.5 809.5 Z M 1086.6 502  L 1096 494  L 1086.6 486  L 1090.2 494  L 1086.6 502  Z " fill-rule="nonzero" fill="#0099cc" stroke="none" />
</svg>