<?xml version="1.0" encoding="utf-8"?>
<svg version="1.1" xmlns:xlink="http://www.w3.org/1999/xlink" width="34px" height="34px" preserveAspectRatio="xMinYMid meet" viewBox="573 1402  34 32" xmlns="http://www.w3.org/2000/svg">
  <path d="M 457 1673  L 518 1673  A 5 5 0 0 0 523 1668 L 523 1423  A 5 5 0 0 1 528 1418 L 590 1418  " stroke-width="2" stroke="#0099cc" fill="none" />
  <path d="M 458.5 1669.5  A 3.5 3.5 0 0 0 455 1673 A 3.5 3.5 0 0 0 458.5 1676.5 A 3.5 3.5 0 0 0 462 1673 A 3.5 3.5 0 0 0 458.5 1669.5 Z M 582.6 1426  L 592 1418  L 582.6 1410  L 586.2 1418  L 582.6 1426  Z " fill-rule="nonzero" fill="#0099cc" stroke="none" />
</svg>