<?xml version="1.0" encoding="utf-8"?>
<svg version="1.1" xmlns:xlink="http://www.w3.org/1999/xlink" width="254px" height="10px" preserveAspectRatio="xMinYMid meet" viewBox="1471 861  254 8" xmlns="http://www.w3.org/2000/svg">
  <path d="M 1473 865  L 1715 865  A 5 5 0 0 0 1720 860 L 1720 601  A 5 5 0 0 1 1725 596 L 1974 596  " stroke-width="2" stroke="#0099cc" fill="none" />
  <path d="M 1474.5 861.5  A 3.5 3.5 0 0 0 1471 865 A 3.5 3.5 0 0 0 1474.5 868.5 A 3.5 3.5 0 0 0 1478 865 A 3.5 3.5 0 0 0 1474.5 861.5 Z M 1966.6 604  L 1976 596  L 1966.6 588  L 1970.2 596  L 1966.6 604  Z " fill-rule="nonzero" fill="#0099cc" stroke="none" />
</svg>