<?xml version="1.0" encoding="utf-8"?>
<svg version="1.1" xmlns:xlink="http://www.w3.org/1999/xlink" width="34px" height="34px" preserveAspectRatio="xMinYMid meet" viewBox="2469 452  34 32" xmlns="http://www.w3.org/2000/svg">
  <path d="M 2333 958  L 2395 958  A 5 5 0 0 0 2400 953 L 2400 473  A 5 5 0 0 1 2405 468 L 2486 468  " stroke-width="2" stroke="#0099cc" fill="none" />
  <path d="M 2334.5 954.5  A 3.5 3.5 0 0 0 2331 958 A 3.5 3.5 0 0 0 2334.5 961.5 A 3.5 3.5 0 0 0 2338 958 A 3.5 3.5 0 0 0 2334.5 954.5 Z M 2478.6 476  L 2488 468  L 2478.6 460  L 2482.2 468  L 2478.6 476  Z " fill-rule="nonzero" fill="#0099cc" stroke="none" />
</svg>