<?xml version="1.0" encoding="utf-8"?>
<svg version="1.1" xmlns:xlink="http://www.w3.org/1999/xlink" width="120px" height="10px" preserveAspectRatio="xMinYMid meet" viewBox="439 464  120 8" xmlns="http://www.w3.org/2000/svg">
  <path d="M 332 174  L 335 174  A 5 5 0 0 1 340 179 L 340 183  A 5 5 0 0 0 345 188 L 439 188  A 5 5 0 0 1 444 193 L 444 463  A 5 5 0 0 0 449 468 L 557 468  " stroke-width="2" stroke="#0099cc" fill="none" />
  <path d="M 333.5 170.5  A 3.5 3.5 0 0 0 330 174 A 3.5 3.5 0 0 0 333.5 177.5 A 3.5 3.5 0 0 0 337 174 A 3.5 3.5 0 0 0 333.5 170.5 Z M 549.6 476  L 559 468  L 549.6 460  L 553.2 468  L 549.6 476  Z " fill-rule="nonzero" fill="#0099cc" stroke="none" />
</svg>