<?xml version="1.0" encoding="utf-8"?>
<svg version="1.1" xmlns:xlink="http://www.w3.org/1999/xlink" width="13px" height="13px" xmlns="http://www.w3.org/2000/svg">
  <g transform="matrix(1 0 0 1 -408 -341 )">
    <path d="M 12.9723011363636 10.0731534090909  C 12.9907670454545 10.116240530303  13 10.1808712121212  13 10.2670454545455  C 13 10.4332386363636  12.9692234848485 10.6502130681818  12.9076704545455 10.91796875  C 12.8461174242424 11.1857244318182  12.7814867424242 11.3965435606061  12.7137784090909 11.5504261363636  C 12.5845170454545 11.8581912878788  12.2090435606061 12.1844223484848  11.5873579545455 12.5291193181818  C 11.008759469697 12.8430397727273  10.4363162878788 13  9.87002840909091 13  C 9.70383522727273 13  9.5407196969697 12.989228219697  9.38068181818182 12.9676846590909  C 9.22064393939394 12.9461410984848  9.04367897727273 12.9076704545455  8.84978693181818 12.8522727272727  C 8.65589488636364 12.796875  8.51124526515152 12.7522490530303  8.41583806818182 12.7183948863636  C 8.32043087121212 12.684540719697  8.14962121212121 12.6214488636364  7.90340909090909 12.5291193181818  C 7.65719696969697 12.4367897727273  7.50639204545455 12.3813920454545  7.45099431818182 12.3629261363636  C 6.84777462121212 12.147490530303  6.30918560606061 11.8920454545455  5.83522727272727 11.5965909090909  C 5.05350378787879 11.110321969697  4.24100378787879 10.4455492424242  3.39772727272727 9.60227272727273  C 2.55445075757576 8.75899621212121  1.88967803030303 7.94649621212121  1.40340909090909 7.16477272727273  C 1.10795454545455 6.69081439393939  0.85250946969697 6.15222537878788  0.637073863636364 5.54900568181818  C 0.618607954545455 5.49360795454545  0.563210227272727 5.34280303030303  0.470880681818182 5.09659090909091  C 0.378551136363636 4.85037878787879  0.31545928030303 4.67956912878788  0.281605113636364 4.58416193181818  C 0.247750946969697 4.48875473484848  0.203125 4.34410511363636  0.147727272727273 4.15021306818182  C 0.0923295454545455 3.95632102272727  0.0538589015151515 3.77935606060606  0.0323153409090909 3.61931818181818  C 0.0107717803030303 3.4592803030303  0 3.29616477272727  0 3.12997159090909  C 0 2.56368371212121  0.156960227272727 1.99124053030303  0.470880681818182 1.41264204545455  C 0.815577651515152 0.790956439393937  1.14180871212121 0.415482954545455  1.44957386363636 0.28622159090909  C 1.60345643939394 0.218513257575757  1.81427556818182 0.153882575757574  2.08203125 0.0923295454545452  C 2.34978693181818 0.0307765151515146  2.56676136363636 0  2.73295454545455 0  C 2.81912878787879 0  2.88375946969697 0.00923295454545481  2.92684659090909 0.027698863636363  C 3.03764204545455 0.0646306818181822  3.20075757575758 0.298532196969697  3.41619318181818 0.72940340909091  C 3.48390151515152 0.846354166666665  3.57623106060606 1.01254734848485  3.69318181818182 1.22798295454545  C 3.81013257575758 1.44341856060606  3.91785037878788 1.63884943181818  4.01633522727273 1.81427556818182  C 4.11482007575758 1.98970170454545  4.21022727272727 2.15435606060606  4.30255681818182 2.30823863636364  C 4.32102272727273 2.33285984848485  4.37488162878788 2.40980113636364  4.46413352272727 2.5390625  C 4.55338541666667 2.66832386363636  4.61955492424242 2.77758049242424  4.66264204545455 2.86683238636364  C 4.70572916666667 2.95608428030303  4.72727272727273 3.04379734848485  4.72727272727273 3.12997159090909  C 4.72727272727273 3.25307765151515  4.63955965909091 3.40696022727273  4.46413352272727 3.59161931818182  C 4.28870738636364 3.77627840909091  4.09789299242424 3.94554924242424  3.89169034090909 4.09943181818182  C 3.68548768939394 4.25331439393939  3.49467329545455 4.41642992424242  3.31924715909091 4.58877840909091  C 3.14382102272727 4.76112689393939  3.05610795454545 4.90269886363636  3.05610795454545 5.01349431818182  C 3.05610795454545 5.06889204545455  3.07149621212121 5.13813920454546  3.10227272727273 5.22123579545455  C 3.13304924242424 5.30433238636364  3.15920928030303 5.36742424242424  3.18075284090909 5.41051136363636  C 3.20229640151515 5.45359848484848  3.24538352272727 5.52746212121212  3.31001420454546 5.63210227272727  C 3.37464488636364 5.73674242424242  3.41003787878788 5.7952178030303  3.41619318181818 5.80752840909091  C 3.88399621212121 6.65080492424242  4.41950757575758 7.37405303030303  5.02272727272727 7.97727272727273  C 5.62594696969697 8.58049242424242  6.34919507575758 9.11600378787879  7.19247159090909 9.58380681818182  C 7.2047821969697 9.58996212121212  7.26325757575758 9.62535511363637  7.36789772727273 9.68998579545455  C 7.47253787878788 9.75461647727273  7.54640151515152 9.79770359848485  7.58948863636364 9.81924715909091  C 7.63257575757576 9.84079071969697  7.69566761363636 9.86695075757576  7.77876420454546 9.89772727272727  C 7.86186079545455 9.92850378787879  7.93110795454546 9.94389204545455  7.98650568181818 9.94389204545455  C 8.09730113636364 9.94389204545455  8.23887310606061 9.85617897727273  8.41122159090909 9.68075284090909  C 8.58357007575758 9.50532670454546  8.74668560606061 9.31451231060606  8.90056818181818 9.10830965909091  C 9.05445075757576 8.90210700757575  9.22372159090909 8.71129261363637  9.40838068181818 8.53586647727273  C 9.59303977272727 8.36044034090909  9.74692234848485 8.27272727272727  9.87002840909091 8.27272727272727  C 9.95620265151515 8.27272727272727  10.043915719697 8.29427083333333  10.1331676136364 8.33735795454546  C 10.2224195075758 8.38044507575757  10.3316761363636 8.44661458333333  10.4609375 8.53586647727273  C 10.5901988636364 8.62511837121212  10.6671401515152 8.67897727272727  10.6917613636364 8.69744318181818  C 10.8456439393939 8.78977272727273  11.0102982954545 8.88517992424242  11.1857244318182 8.98366477272727  C 11.3611505681818 9.08214962121212  11.5565814393939 9.18986742424242  11.7720170454545 9.30681818181818  C 11.9874526515152 9.42376893939394  12.1536458333333 9.51609848484848  12.2705965909091 9.58380681818182  C 12.7014678030303 9.79924242424242  12.9353693181818 9.96235795454546  12.9723011363636 10.0731534090909  Z " fill-rule="nonzero" fill="#000000" stroke="none" transform="matrix(1 0 0 1 408 341 )" />
  </g>
</svg>