<?xml version="1.0" encoding="utf-8"?>
<svg version="1.1" xmlns:xlink="http://www.w3.org/1999/xlink" width="10px" height="507px" preserveAspectRatio="xMidYMin meet" viewBox="516 463  8 507" xmlns="http://www.w3.org/2000/svg">
  <path d="M 414 965  L 515 965  A 5 5 0 0 0 520 960 L 520 473  A 5 5 0 0 1 525 468 L 599 468  " stroke-width="2" stroke="#0099cc" fill="none" />
  <path d="M 415.5 961.5  A 3.5 3.5 0 0 0 412 965 A 3.5 3.5 0 0 0 415.5 968.5 A 3.5 3.5 0 0 0 419 965 A 3.5 3.5 0 0 0 415.5 961.5 Z M 591.6 476  L 601 468  L 591.6 460  L 595.2 468  L 591.6 476  Z " fill-rule="nonzero" fill="#0099cc" stroke="none" />
</svg>