<?xml version="1.0" encoding="utf-8"?>
<svg version="1.1" xmlns:xlink="http://www.w3.org/1999/xlink" width="72px" height="10px" preserveAspectRatio="xMinYMid meet" viewBox="444 271  72 8" xmlns="http://www.w3.org/2000/svg">
  <path d="M 446 275  L 506 275  A 5 5 0 0 1 511 280 L 511 462  A 5 5 0 0 0 516 467 L 577 467  " stroke-width="2" stroke="#0099cc" fill="none" />
  <path d="M 447.5 271.5  A 3.5 3.5 0 0 0 444 275 A 3.5 3.5 0 0 0 447.5 278.5 A 3.5 3.5 0 0 0 451 275 A 3.5 3.5 0 0 0 447.5 271.5 Z M 569.6 475  L 579 467  L 569.6 459  L 573.2 467  L 569.6 475  Z " fill-rule="nonzero" fill="#0099cc" stroke="none" />
</svg>