<?xml version="1.0" encoding="utf-8"?>
<svg version="1.1" xmlns:xlink="http://www.w3.org/1999/xlink" width="35px" height="35px" xmlns="http://www.w3.org/2000/svg">
  <g transform="matrix(1 0 0 1 -1249 -392 )">
    <path d="M 35 17.5  C 35 7.85002015625005  27.14997984375 0  17.5 0  C 7.85122968749993 0  0 7.85002015625005  0 17.5  C 0 27.14997984375  7.85002015625005 35  17.5 35  C 27.1487703125001 35  35 27.14997984375  35 17.5  Z M 19.2712673046874 17.5049724609375  L 24.6387582421875 22.890001328125  C 25.1262599218749 23.3799892187501  25.124983203125 24.1700040234374  24.6362720312501 24.6575057031251  C 24.3925548046875 24.9000134375  24.0737804296875 25.0225103906249  23.7537965624999 25.0225103906249  C 23.4325359765625 25.0225103906249  23.1125521093751 24.9000133984375  22.86876765625 24.655019453125  L 17.4937508593749 19.2637414062499  L 12.1012632812499 24.5987770312499  C 11.8575460546874 24.8387985156249  11.5399812109375 24.9600187890625  11.2224835546876 24.9600187890625  C 10.9000134375 24.9600187890625  10.5787528906251 24.8362451171874  10.3337589062501 24.588764921875  C 9.84874343749995 24.0975003125  9.85250636718755 23.3074855078124  10.3437710156251 22.8212605468749  L 15.7300094140625 17.4937508203124  L 10.3637280078125 12.1099986328125  C 9.87622632812509 11.6212202343749  9.877503046875 10.8299959375  10.3662142187499 10.3424942578124  C 10.8549926171875 9.85371585937511  11.6449401953125 9.85626929687492  12.13371859375 10.3449804687501  L 17.5074586718749 15.7349817968751  L 22.89994625 10.4000133593751  C 23.389934140625 9.91378839843759  24.1824351562501 9.91876082031252  24.667450625 10.4100254687501  C 25.1536755859375 10.901290078125  25.1487031640626 11.692514375  24.657438515625 12.1775298437501  L 19.2712673046874 17.5049724609375  Z " fill-rule="nonzero" fill="#ffffff" stroke="none" transform="matrix(1 0 0 1 1249 392 )" />
  </g>
</svg>