<?xml version="1.0" encoding="utf-8"?>
<svg version="1.1" xmlns:xlink="http://www.w3.org/1999/xlink" width="15px" height="15px" xmlns="http://www.w3.org/2000/svg">
  <g transform="matrix(1 0 0 1 -1391 -468 )">
    <path d="M 9.6410059703669 11.2478402778329  C 9.64100595362606 11.5444423062518  9.40199655007609 11.7863313563653  9.10539452198873 11.7863313563653  C 8.80879249390091 11.7863313563653  8.56978307360987 11.5473219525488  8.56978307360987 11.2507199073889  L 8.56978307360987 5.35611442279878  C 8.56978307360987 5.05951239437991  8.80879247716007 4.82050297382284  9.10539452198873 4.82050297382284  C 9.40199656681693 4.82050297382284  9.6410059703669 5.05951237763907  9.6410059703669 5.35611442279878  L 9.6410059703669 11.2478402778329  Z M 6.42733733031878 11.2478402778329  C 6.42733731357748 11.5444423062518  6.18832791002774 11.7863313563653  5.89172586519953 11.7863313563653  C 5.59512383711171 11.7863313563653  5.3561144168209 11.5473219525488  5.3561144168209 11.2507199073889  L 5.35611443356174 5.35611442279878  C 5.35611443356174 5.05951239437991  5.59512383711171 4.82050297382284  5.89172588194015 4.82050297382284  C 6.18832791002774 4.82050297382284  6.42733733031878 5.05951237763907  6.42733733031878 5.35611442279878  L 6.42733733031878 11.2478402778329  Z M 15 3.21366866037556  C 15 2.9170666152163  14.7609905964503 2.67805721139962  14.4643885516216 2.67805721139962  L 11.7863313432108 2.67805721139962  L 11.7863313599521 1.60683433018767  C 11.7863313599521 0.719907857746648  11.0721827788548 0  10.1910155665093 0  L 4.82050298518334 0  C 3.93357651373253 0  3.2136686567892 0.719907857746648  3.2136686567892 1.60683433018767  L 3.2136686567892 2.67805721139962  L 0.535611448378404 2.67805721139962  C 0.239009420290813 2.67805721139962  0 2.9170666152163  0 3.21366866037556  C 0 3.51027070553482  0.239009403549971 3.7492801093515  0.535611448378404 4  L 14.4643885516216 4  C 14.7609905797094 3.7492801093515  15 3.51027070553482  15 3.21366866037556  Z M 4.284891553546 1.60683433018767  C 4.284891553546 1.31311193132478  4.52678058664856 1.0712228812115  4.82050300192418 1.0712228812115  L 10.1910155665093 1.0712228812115  C 10.4847379650444 1.0712228812115  10.7151084799357 1.30735265547219  10.7151084799357 1.60683433018767  L 10.7151084799357 2.67805721139962  L 4.284891553546 2.67805721139962  L 4.284891553546 1.60683433018767  Z M 12.8604338862615 13.3931656698123  C 12.8575542399678 14.2772125126971  12.1376463830243 15  11.2507199115732 15  L 3.75215973471995 15  C 2.86523326326892 15  2.14532540632558 14.2800921422534  2.14532540632558 13.3931656698123  L 2.14532540632558 5.35035514694619  C 2.14532540632558 5.05375311852731  2.38433480987578 4.81474369797024  2.68093685470421 4.81474369797024  C 2.97753889953219 4.81474369797024  3.21654830308216 5.05375310178624  3.21654830308216 5.35035514694619  L 3.21654830308216 13.3931656698123  C 3.21654830308216 13.6897676982314  3.4584373361854 13.9287771187885  3.75215975146102 13.9287771187885  L 11.2535995578669 13.9287771187885  C 11.5502015859547 13.9287771187885  11.7892110062455 13.6897677149716  11.7892110062455 13.3931656698123  L 11.7892109895047 5.37051257057919  C 11.7892109895047 5.07391054216032  12.0282203930547 4.8349011216028  12.3248224378831 4.8349011216028  C 12.6214244827113 4.8349011216028  12.8604338862615 5.07391052541925  12.8604338862615 5.37051257057919  L 12.8604338862615 13.3931656698123  Z " fill-rule="nonzero" fill="#999999" stroke="none" transform="matrix(1 0 0 1 1391 468 )" />
  </g>
</svg>