<?xml version="1.0" encoding="utf-8"?>
<svg version="1.1" xmlns:xlink="http://www.w3.org/1999/xlink" width="21px" height="20px" preserveAspectRatio="xMinYMid meet" viewBox="1946 805  21 18" xmlns="http://www.w3.org/2000/svg">
  <path d="M 1955 814  L 2006 814  A 5 5 0 0 0 2011 809 L 2011 473  A 5 5 0 0 1 2016 468 L 2067 468  " stroke-width="2" stroke="#0099cc" fill="none" />
  <path d="M 1956.5 810.5  A 3.5 3.5 0 0 0 1953 814 A 3.5 3.5 0 0 0 1956.5 817.5 A 3.5 3.5 0 0 0 1960 814 A 3.5 3.5 0 0 0 1956.5 810.5 Z M 2059.6 476  L 2069 468  L 2059.6 460  L 2063.2 468  L 2059.6 476  Z " fill-rule="nonzero" fill="#0099cc" stroke="none" />
</svg>