<?xml version="1.0" encoding="utf-8"?>
<svg version="1.1" xmlns:xlink="http://www.w3.org/1999/xlink" width="10px" height="355px" preserveAspectRatio="xMidYMin meet" viewBox="1512 463  8 355" xmlns="http://www.w3.org/2000/svg">
  <path d="M 1457 813  L 1511 813  A 5 5 0 0 0 1516 808 L 1516 473  A 5 5 0 0 1 1521 468 L 1576 468  " stroke-width="2" stroke="#0099cc" fill="none" />
  <path d="M 1458.5 809.5  A 3.5 3.5 0 0 0 1455 813 A 3.5 3.5 0 0 0 1458.5 816.5 A 3.5 3.5 0 0 0 1462 813 A 3.5 3.5 0 0 0 1458.5 809.5 Z M 1568.6 476  L 1578 468  L 1568.6 460  L 1572.2 468  L 1568.6 476  Z " fill-rule="nonzero" fill="#0099cc" stroke="none" />
</svg>