<?xml version="1.0" encoding="utf-8"?>
<svg version="1.1" xmlns:xlink="http://www.w3.org/1999/xlink" width="10px" height="22px" preserveAspectRatio="xMidYMin meet" viewBox="1264 873  8 22" xmlns="http://www.w3.org/2000/svg">
  <path d="M 136 826  L 136 885  A 5 5 0 0 0 141 890 L 1263 890  A 5 5 0 0 0 1268 885 L 1268 875  " stroke-width="2" stroke="#0099cc" fill="none" />
  <path d="M 136 824  A 3.5 3.5 0 0 0 132.5 827.5 A 3.5 3.5 0 0 0 136 831 A 3.5 3.5 0 0 0 139.5 827.5 A 3.5 3.5 0 0 0 136 824 Z M 1276 882.4  L 1268 873  L 1260 882.4  L 1268 878.8  L 1276 882.4  Z " fill-rule="nonzero" fill="#0099cc" stroke="none" />
</svg>