<?xml version="1.0" encoding="utf-8"?>
<svg version="1.1" xmlns:xlink="http://www.w3.org/1999/xlink" width="68px" height="10px" preserveAspectRatio="xMinYMid meet" viewBox="466 1670  68 8" xmlns="http://www.w3.org/2000/svg">
  <path d="M 468 1674  L 524 1674  A 5 5 0 0 0 529 1669 L 529 1423  A 5 5 0 0 1 534 1418 L 590 1418  " stroke-width="2" stroke="#0099cc" fill="none" />
  <path d="M 469.5 1670.5  A 3.5 3.5 0 0 0 466 1674 A 3.5 3.5 0 0 0 469.5 1677.5 A 3.5 3.5 0 0 0 473 1674 A 3.5 3.5 0 0 0 469.5 1670.5 Z M 582.6 1426  L 592 1418  L 582.6 1410  L 586.2 1418  L 582.6 1426  Z " fill-rule="nonzero" fill="#0099cc" stroke="none" />
</svg>