<?xml version="1.0" encoding="utf-8"?>
<svg version="1.1" xmlns:xlink="http://www.w3.org/1999/xlink" width="20px" height="21px" preserveAspectRatio="xMidYMin meet" viewBox="2289 820  18 21" xmlns="http://www.w3.org/2000/svg">
  <path d="M 2298 829  L 2298 835  A 5 5 0 0 0 2303 840 L 2465 840  A 5 5 0 0 0 2470 835 L 2470 473  A 5 5 0 0 1 2475 468 L 2486 468  " stroke-width="2" stroke="#0099cc" fill="none" />
  <path d="M 2298 827  A 3.5 3.5 0 0 0 2294.5 830.5 A 3.5 3.5 0 0 0 2298 834 A 3.5 3.5 0 0 0 2301.5 830.5 A 3.5 3.5 0 0 0 2298 827 Z M 2478.6 476  L 2488 468  L 2478.6 460  L 2482.2 468  L 2478.6 476  Z " fill-rule="nonzero" fill="#0099cc" stroke="none" />
</svg>