<?xml version="1.0" encoding="utf-8"?>
<svg version="1.1" xmlns:xlink="http://www.w3.org/1999/xlink" width="101px" height="10px" preserveAspectRatio="xMinYMid meet" viewBox="1394 557  101 8" xmlns="http://www.w3.org/2000/svg">
  <path d="M 1396 561  L 1485 561  A 5 5 0 0 0 1490 556 L 1490 472  A 5 5 0 0 1 1495 467 L 1505 467  " stroke-width="2" stroke="#0099cc" fill="none" />
  <path d="M 1397.5 557.5  A 3.5 3.5 0 0 0 1394 561 A 3.5 3.5 0 0 0 1397.5 564.5 A 3.5 3.5 0 0 0 1401 561 A 3.5 3.5 0 0 0 1397.5 557.5 Z M 1497.6 475  L 1507 467  L 1497.6 459  L 1501.2 467  L 1497.6 475  Z " fill-rule="nonzero" fill="#0099cc" stroke="none" />
</svg>