<?xml version="1.0" encoding="utf-8"?>
<svg version="1.1" xmlns:xlink="http://www.w3.org/1999/xlink" width="21px" height="10px" preserveAspectRatio="xMinYMid meet" viewBox="1995 631  21 8" xmlns="http://www.w3.org/2000/svg">
  <path d="M 1886 427  L 1995 427  A 5 5 0 0 1 2000 432 L 2000 630  A 5 5 0 0 0 2005 635 L 2014 635  " stroke-width="2" stroke="#0099cc" fill="none" />
  <path d="M 1887.5 423.5  A 3.5 3.5 0 0 0 1884 427 A 3.5 3.5 0 0 0 1887.5 430.5 A 3.5 3.5 0 0 0 1891 427 A 3.5 3.5 0 0 0 1887.5 423.5 Z M 2006.6 643  L 2016 635  L 2006.6 627  L 2010.2 635  L 2006.6 643  Z " fill-rule="nonzero" fill="#0099cc" stroke="none" />
</svg>