<?xml version="1.0" encoding="utf-8"?>
<svg version="1.1" xmlns:xlink="http://www.w3.org/1999/xlink" width="78px" height="10px" preserveAspectRatio="xMinYMid meet" viewBox="943 463  78 8" xmlns="http://www.w3.org/2000/svg">
  <path d="M 878 262  L 943 262  A 5 5 0 0 1 948 267 L 948 462  A 5 5 0 0 0 953 467 L 1019 467  " stroke-width="2" stroke="#0099cc" fill="none" />
  <path d="M 879.5 258.5  A 3.5 3.5 0 0 0 876 262 A 3.5 3.5 0 0 0 879.5 265.5 A 3.5 3.5 0 0 0 883 262 A 3.5 3.5 0 0 0 879.5 258.5 Z M 1011.6 475  L 1021 467  L 1011.6 459  L 1015.2 467  L 1011.6 475  Z " fill-rule="nonzero" fill="#0099cc" stroke="none" />
</svg>