<?xml version="1.0" encoding="utf-8"?>
<svg version="1.1" xmlns:xlink="http://www.w3.org/1999/xlink" width="196px" height="45px" xmlns="http://www.w3.org/2000/svg">
  <g transform="matrix(1 0 0 1 -56 -1081 )">
    <path d="M 234.236221437006 1081.5  C 234.236221437006 1081.5  237.740876392248 1081.90232008415  237.740876392248 1081.90232008415  C 237.740876392248 1081.90232008415  251.459402709169 1103.5  251.459402709169 1103.5  C 251.459402709169 1103.5  237.740876392248 1125.09767991585  237.740876392248 1125.09767991585  C 237.740876392248 1125.09767991585  234.236221437006 1125.5  234.236221437006 1125.5  C 234.236221437006 1125.5  56.5 1125.5  56.5 1125.5  C 56.5 1125.5  56.5 1081.5  56.5 1081.5  C 56.5 1081.5  234.236221437006 1081.5  234.236221437006 1081.5  Z " fill-rule="nonzero" fill="#a3dff2" stroke="none" />
    <path d="M 234.236221437006 1081.5  C 234.236221437006 1081.5  237.740876392248 1081.90232008415  237.740876392248 1081.90232008415  C 237.740876392248 1081.90232008415  251.459402709169 1103.5  251.459402709169 1103.5  C 251.459402709169 1103.5  237.740876392248 1125.09767991585  237.740876392248 1125.09767991585  C 237.740876392248 1125.09767991585  234.236221437006 1125.5  234.236221437006 1125.5  C 234.236221437006 1125.5  56.5 1125.5  56.5 1125.5  C 56.5 1125.5  56.5 1081.5  56.5 1081.5  C 56.5 1081.5  234.236221437006 1081.5  234.236221437006 1081.5  Z " stroke-width="1" stroke="#f2f2f2" fill="none" />
  </g>
</svg>