<?xml version="1.0" encoding="utf-8"?>
<svg version="1.1" xmlns:xlink="http://www.w3.org/1999/xlink" width="24px" height="10px" preserveAspectRatio="xMinYMid meet" viewBox="431 1055  24 8" xmlns="http://www.w3.org/2000/svg">
  <path d="M 413 216  L 445 216  A 5 5 0 0 1 450 221 L 450 1054  A 5 5 0 0 1 445 1059 L 433 1059  " stroke-width="2" stroke="#0099cc" fill="none" />
  <path d="M 414.5 212.5  A 3.5 3.5 0 0 0 411 216 A 3.5 3.5 0 0 0 414.5 219.5 A 3.5 3.5 0 0 0 418 216 A 3.5 3.5 0 0 0 414.5 212.5 Z M 440.4 1051  L 431 1059  L 440.4 1067  L 436.8 1059  L 440.4 1051  Z " fill-rule="nonzero" fill="#0099cc" stroke="none" />
</svg>