<?xml version="1.0" encoding="utf-8"?>
<svg version="1.1" xmlns:xlink="http://www.w3.org/1999/xlink" width="10px" height="355px" preserveAspectRatio="xMidYMin meet" viewBox="1486 463  8 355" xmlns="http://www.w3.org/2000/svg">
  <path d="M 1439 813  L 1485 813  A 5 5 0 0 0 1490 808 L 1490 473  A 5 5 0 0 1 1495 468 L 1541 468  " stroke-width="2" stroke="#0099cc" fill="none" />
  <path d="M 1440.5 809.5  A 3.5 3.5 0 0 0 1437 813 A 3.5 3.5 0 0 0 1440.5 816.5 A 3.5 3.5 0 0 0 1444 813 A 3.5 3.5 0 0 0 1440.5 809.5 Z M 1533.6 476  L 1543 468  L 1533.6 460  L 1537.2 468  L 1533.6 476  Z " fill-rule="nonzero" fill="#0099cc" stroke="none" />
</svg>