<?xml version="1.0" encoding="utf-8"?>
<svg version="1.1" xmlns:xlink="http://www.w3.org/1999/xlink" width="34px" height="34px" preserveAspectRatio="xMinYMid meet" viewBox="1043 451  34 32" xmlns="http://www.w3.org/2000/svg">
  <path d="M 931 813  L 990 813  A 5 5 0 0 0 995 808 L 995 472  A 5 5 0 0 1 1000 467 L 1060 467  " stroke-width="2" stroke="#0099cc" fill="none" />
  <path d="M 932.5 809.5  A 3.5 3.5 0 0 0 929 813 A 3.5 3.5 0 0 0 932.5 816.5 A 3.5 3.5 0 0 0 936 813 A 3.5 3.5 0 0 0 932.5 809.5 Z M 1052.6 475  L 1062 467  L 1052.6 459  L 1056.2 467  L 1052.6 475  Z " fill-rule="nonzero" fill="#0099cc" stroke="none" />
</svg>