<?xml version="1.0" encoding="utf-8"?>
<svg version="1.1" xmlns:xlink="http://www.w3.org/1999/xlink" width="20px" height="21px" preserveAspectRatio="xMidYMin meet" viewBox="1763 820  18 21" xmlns="http://www.w3.org/2000/svg">
  <path d="M 1772 829  L 1772 835  A 5 5 0 0 0 1777 840 L 2015 840  A 5 5 0 0 0 2020 835 L 2020 473  A 5 5 0 0 1 2025 468 L 2034 468  " stroke-width="2" stroke="#0099cc" fill="none" />
  <path d="M 1772 827  A 3.5 3.5 0 0 0 1768.5 830.5 A 3.5 3.5 0 0 0 1772 834 A 3.5 3.5 0 0 0 1775.5 830.5 A 3.5 3.5 0 0 0 1772 827 Z M 2026.6 476  L 2036 468  L 2026.6 460  L 2030.2 468  L 2026.6 476  Z " fill-rule="nonzero" fill="#0099cc" stroke="none" />
</svg>