<?xml version="1.0" encoding="utf-8"?>
<svg version="1.1" xmlns:xlink="http://www.w3.org/1999/xlink" width="10px" height="149px" preserveAspectRatio="xMidYMin meet" viewBox="2506 476  8 149" xmlns="http://www.w3.org/2000/svg">
  <path d="M 2150 607  L 2150 615  A 5 5 0 0 0 2155 620 L 2505 620  A 5 5 0 0 0 2510 615 L 2510 486  A 5 5 0 0 1 2515 481 L 2523 481  " stroke-width="2" stroke="#0099cc" fill="none" />
  <path d="M 2150 605  A 3.5 3.5 0 0 0 2146.5 608.5 A 3.5 3.5 0 0 0 2150 612 A 3.5 3.5 0 0 0 2153.5 608.5 A 3.5 3.5 0 0 0 2150 605 Z M 2515.6 489  L 2525 481  L 2515.6 473  L 2519.2 481  L 2515.6 489  Z " fill-rule="nonzero" fill="#0099cc" stroke="none" />
</svg>