<?xml version="1.0" encoding="utf-8"?>
<svg version="1.1" xmlns:xlink="http://www.w3.org/1999/xlink" width="49px" height="18px" xmlns="http://www.w3.org/2000/svg">
  <defs>
    <mask fill="white" id="clip149">
      <path d="M 0 14.0869565217391  L 0 3.91304347826087  C 0 1.72173913043477  1.47671232876712 0  3.35616438356164 0  L 11.4109589041096 0  L 45.6438356164384 0  C 47.5232876712329 0  49 1.72173913043477  49 3.91304347826087  L 49 14.0869565217391  C 49 16.2782608695652  47.5232876712329 18  45.6438356164384 18  L 3.35616438356164 18  C 1.47671232876712 18  0 16.2782608695652  0 14.0869565217391  Z " fill-rule="evenodd" />
    </mask>
  </defs>
  <g transform="matrix(1 0 0 1 -140 -355 )">
    <path d="M 0 14.0869565217391  L 0 3.91304347826087  C 0 1.72173913043477  1.47671232876712 0  3.35616438356164 0  L 11.4109589041096 0  L 45.6438356164384 0  C 47.5232876712329 0  49 1.72173913043477  49 3.91304347826087  L 49 14.0869565217391  C 49 16.2782608695652  47.5232876712329 18  45.6438356164384 18  L 3.35616438356164 18  C 1.47671232876712 18  0 16.2782608695652  0 14.0869565217391  Z " fill-rule="nonzero" fill="#ffffff" stroke="none" transform="matrix(1 0 0 1 140 355 )" />
    <path d="M 0 14.0869565217391  L 0 3.91304347826087  C 0 1.72173913043477  1.47671232876712 0  3.35616438356164 0  L 11.4109589041096 0  L 45.6438356164384 0  C 47.5232876712329 0  49 1.72173913043477  49 3.91304347826087  L 49 14.0869565217391  C 49 16.2782608695652  47.5232876712329 18  45.6438356164384 18  L 3.35616438356164 18  C 1.47671232876712 18  0 16.2782608695652  0 14.0869565217391  Z " stroke-width="2" stroke="#02a7f0" fill="none" transform="matrix(1 0 0 1 140 355 )" mask="url(#clip149)" />
  </g>
</svg>