<?xml version="1.0" encoding="utf-8"?>
<svg version="1.1" xmlns:xlink="http://www.w3.org/1999/xlink" width="98px" height="80px" xmlns="http://www.w3.org/2000/svg">
  <g transform="matrix(1 0 0 1 -753 -371 )">
    <path d="M 753 371  L 851 371  L 851 451  L 753 451  L 753 371  " fill-rule="nonzero" fill="#cccccc" stroke="none" />
    <path d="M 759 377  L 845 377  L 845 445  L 759 445  L 759 377  " fill-rule="nonzero" fill="#ffffff" stroke="none" />
    <path d="M 809.96 395  C 806.6 395  803.96 392.36  803.96 389  C 803.96 385.64  806.6 383  809.96 383  C 813.32 383  815.96 385.64  815.96 389  C 815.96 392.36  813.32 395  809.96 395  " fill-rule="nonzero" fill="#cccccc" stroke="none" />
    <path d="M 761 443  L 761 407.8  L 781.5 391.8  L 810.2 411.65306122449  L 826.6 401.4  L 843 411.65306122449  L 843 443  L 761 443  " fill-rule="nonzero" fill="#169bd5" stroke="none" />
  </g>
</svg>