<?xml version="1.0" encoding="utf-8"?>
<svg version="1.1" xmlns:xlink="http://www.w3.org/1999/xlink" width="372px" height="315px" xmlns="http://www.w3.org/2000/svg">
  <g transform="matrix(1 0 0 1 -136 -286 )">
    <path d="M 136 286  L 508 286  L 508 601  L 136 601  L 136 286  " fill-rule="nonzero" fill="#cccccc" stroke="none" />
    <path d="M 158 308  L 486 308  L 486 579  L 158 579  L 158 308  " fill-rule="nonzero" fill="#ffffff" stroke="none" />
    <path d="M 353.065 380.5  C 339.835 380.5  329.44 370.105  329.44 356.875  C 329.44 343.645  339.835 333.25  353.065 333.25  C 366.295 333.25  376.69 343.645  376.69 356.875  C 376.69 370.105  366.295 380.5  353.065 380.5  " fill-rule="nonzero" fill="#cccccc" stroke="none" />
    <path d="M 166 571  L 166 430.75  L 244 367  L 353.2 441.443548387097  L 415.6 405.25  L 478 441.443548387097  L 478 571  L 166 571  " fill-rule="nonzero" fill="#169bd5" stroke="none" />
  </g>
</svg>