<?xml version="1.0" encoding="utf-8"?>
<svg version="1.1" xmlns:xlink="http://www.w3.org/1999/xlink" width="10px" height="133px" preserveAspectRatio="xMidYMin meet" viewBox="526 531  8 133" xmlns="http://www.w3.org/2000/svg">
  <path d="M 422 659  L 525 659  A 5 5 0 0 0 530 654 L 530 541  A 5 5 0 0 1 535 536 L 542 536  " stroke-width="2" stroke="#0099cc" fill="none" />
  <path d="M 423.5 655.5  A 3.5 3.5 0 0 0 420 659 A 3.5 3.5 0 0 0 423.5 662.5 A 3.5 3.5 0 0 0 427 659 A 3.5 3.5 0 0 0 423.5 655.5 Z M 534.6 544  L 544 536  L 534.6 528  L 538.2 536  L 534.6 544  Z " fill-rule="nonzero" fill="#0099cc" stroke="none" />
</svg>