<?xml version="1.0" encoding="utf-8"?>
<svg version="1.1" xmlns:xlink="http://www.w3.org/1999/xlink" width="10px" height="312px" preserveAspectRatio="xMidYMin meet" viewBox="497 874  8 312" xmlns="http://www.w3.org/2000/svg">
  <path d="M 422 879  L 496 879  A 5 5 0 0 1 501 884 L 501 1176  A 5 5 0 0 0 506 1181 L 580 1181  " stroke-width="2" stroke="#0099cc" fill="none" />
  <path d="M 423.5 875.5  A 3.5 3.5 0 0 0 420 879 A 3.5 3.5 0 0 0 423.5 882.5 A 3.5 3.5 0 0 0 427 879 A 3.5 3.5 0 0 0 423.5 875.5 Z M 572.6 1189  L 582 1181  L 572.6 1173  L 576.2 1181  L 572.6 1189  Z " fill-rule="nonzero" fill="#0099cc" stroke="none" />
</svg>