<?xml version="1.0" encoding="utf-8"?>
<svg version="1.1" xmlns:xlink="http://www.w3.org/1999/xlink" width="20px" height="21px" preserveAspectRatio="xMidYMin meet" viewBox="265 473  18 21" xmlns="http://www.w3.org/2000/svg">
  <path d="M 274 482  L 274 485  A 5 5 0 0 0 279 490 L 565 490  A 5 5 0 0 0 570 485 L 570 250  A 5 5 0 0 1 575 245 L 582 245  " stroke-width="2" stroke="#0099cc" fill="none" />
  <path d="M 274 480  A 3.5 3.5 0 0 0 270.5 483.5 A 3.5 3.5 0 0 0 274 487 A 3.5 3.5 0 0 0 277.5 483.5 A 3.5 3.5 0 0 0 274 480 Z M 574.6 253  L 584 245  L 574.6 237  L 578.2 245  L 574.6 253  Z " fill-rule="nonzero" fill="#0099cc" stroke="none" />
</svg>