<?xml version="1.0" encoding="utf-8"?>
<svg version="1.1" xmlns:xlink="http://www.w3.org/1999/xlink" width="73px" height="23px" xmlns="http://www.w3.org/2000/svg">
  <defs>
    <mask fill="white" id="clip106">
      <path d="M 0 18  L 0 5  C 0 2.19999999999999  2.19999999999999 0  5 0  L 17 0  L 68 0  C 70.8 0  73 2.19999999999999  73 5  L 73 18  C 73 20.8  70.8 23  68 23  L 5 23  C 2.19999999999999 23  0 20.8  0 18  Z " fill-rule="evenodd" />
    </mask>
  </defs>
  <g transform="matrix(1 0 0 1 -237 -457 )">
    <path d="M 0 18  L 0 5  C 0 2.19999999999999  2.19999999999999 0  5 0  L 17 0  L 68 0  C 70.8 0  73 2.19999999999999  73 5  L 73 18  C 73 20.8  70.8 23  68 23  L 5 23  C 2.19999999999999 23  0 20.8  0 18  Z " fill-rule="nonzero" fill="#ffffff" stroke="none" transform="matrix(1 0 0 1 237 457 )" />
    <path d="M 0 18  L 0 5  C 0 2.19999999999999  2.19999999999999 0  5 0  L 17 0  L 68 0  C 70.8 0  73 2.19999999999999  73 5  L 73 18  C 73 20.8  70.8 23  68 23  L 5 23  C 2.19999999999999 23  0 20.8  0 18  Z " stroke-width="2" stroke="#02a7f0" fill="none" transform="matrix(1 0 0 1 237 457 )" mask="url(#clip106)" />
  </g>
</svg>