<?xml version="1.0" encoding="utf-8"?>
<svg version="1.1" xmlns:xlink="http://www.w3.org/1999/xlink" width="87px" height="32px" xmlns="http://www.w3.org/2000/svg">
  <g transform="matrix(1 0 0 1 -336 -109 )">
    <path d="M 337 125  A 15 15 0 0 1 352 110 L 407 110  A 15 15 0 0 1 422 125 A 15 15 0 0 1 407 140 L 352 140  A 15 15 0 0 1 337 125 Z " fill-rule="nonzero" fill="#ffffff" stroke="none" fill-opacity="0.6" />
    <path d="M 336.5 125  A 15.5 15.5 0 0 1 352 109.5 L 407 109.5  A 15.5 15.5 0 0 1 422.5 125 A 15.5 15.5 0 0 1 407 140.5 L 352 140.5  A 15.5 15.5 0 0 1 336.5 125 Z " stroke-width="1" stroke="#000000" fill="none" stroke-opacity="0.0784313725490196" />
  </g>
</svg>