<?xml version="1.0" encoding="utf-8"?>
<svg version="1.1" xmlns:xlink="http://www.w3.org/1999/xlink" width="18px" height="11px" xmlns="http://www.w3.org/2000/svg">
  <g transform="matrix(1 0 0 1 -349 -76 )">
    <path d="M 1.19999999999938 10.8333333333333  C 0.631935685887766 10.8333333333333  0.171428571427948 10.385618083164  0.171428571427948 9.83333333333326  C 0.171428571427948 9.83333333333326  0.171428571427948 7.83333333333326  0.171428571427948 7.83333333333326  C 0.171428571427948 7.28104858350241  0.631935685887766 6.83333333333326  1.19999999999938 6.83333333333326  C 1.19999999999938 6.83333333333326  2.2285714285708 6.83333333333326  2.2285714285708 6.83333333333326  C 2.79663574268242 6.83333333333326  3.25714285714223 7.28104858350241  3.25714285714223 7.83333333333326  C 3.25714285714223 7.83333333333326  3.25714285714223 9.83333333333326  3.25714285714223 9.83333333333326  C 3.25714285714223 10.385618083164  2.79663574268242 10.8333333333333  2.2285714285708 10.8333333333333  C 2.2285714285708 10.8333333333333  1.19999999999938 10.8333333333333  1.19999999999938 10.8333333333333  Z M 7.02857142857088 10.8333333333333  C 7.02857142857088 10.8333333333333  5.99999999999945 10.8333333333333  5.99999999999945 10.8333333333333  C 5.43193568588773 10.8333333333333  4.97142857142803 10.385618083164  4.97142857142803 9.83333333333326  C 4.97142857142803 9.83333333333326  4.97142857142803 5.83333333333326  4.97142857142803 5.83333333333326  C 4.97142857142803 5.28104858350241  5.43193568588773 4.83333333333326  5.99999999999945 4.83333333333326  C 5.99999999999945 4.83333333333326  7.02857142857088 4.83333333333326  7.02857142857088 4.83333333333326  C 7.59663574268249 4.83333333333326  8.05714285714231 5.28104858350241  8.05714285714231 5.83333333333326  C 8.05714285714231 5.83333333333326  8.05714285714231 9.83333333333326  8.05714285714231 9.83333333333326  C 8.05714285714231 10.385618083164  7.59663574268249 10.8333333333333  7.02857142857088 10.8333333333333  Z M 10.7999999999995 10.8333333333334  C 10.2319356858878 10.8333333333334  9.7714285714281 10.3856180831641  9.7714285714281 9.83333333333337  C 9.7714285714281 9.83333333333337  9.7714285714281 3.5  9.7714285714281 3.5  C 9.7714285714281 2.94771525016915  10.2319356858878 2.5  10.7999999999995 2.5  C 10.7999999999995 2.5  11.828571428571 2.5  11.828571428571 2.5  C 12.3966357426827 2.5  12.8571428571424 2.94771525016915  12.8571428571424 3.5  C 12.8571428571424 3.5  12.8571428571424 9.83333333333337  12.8571428571424 9.83333333333337  C 12.8571428571424 10.3856180831641  12.3966357426827 10.8333333333334  11.828571428571 10.8333333333334  C 11.828571428571 10.8333333333334  10.7999999999995 10.8333333333334  10.7999999999995 10.8333333333334  Z M 14.5714285714279 1.16666666666663  C 14.5714285714279 0.614381916835782  15.0319356858878 0.166666666666629  15.5999999999994 0.166666666666629  C 15.5999999999994 0.166666666666629  16.6285714285708 0.166666666666629  16.6285714285708 0.166666666666629  C 17.1966357426824 0.166666666666629  17.6571428571422 0.614381916835782  17.6571428571422 1.16666666666663  C 17.6571428571422 1.16666666666663  17.6571428571422 9.83333333333326  17.6571428571422 9.83333333333326  C 17.6571428571422 10.3856180831641  17.1966357426824 10.8333333333333  16.6285714285708 10.8333333333333  C 16.6285714285708 10.8333333333333  15.5999999999994 10.8333333333333  15.5999999999994 10.8333333333333  C 15.0319356858878 10.8333333333333  14.5714285714279 10.3856180831641  14.5714285714279 9.83333333333326  C 14.5714285714279 9.83333333333326  14.5714285714279 1.16666666666663  14.5714285714279 1.16666666666663  Z " fill-rule="nonzero" fill="#000000" stroke="none" transform="matrix(1 0 0 1 349 76 )" />
  </g>
</svg>