<?xml version="1.0" encoding="utf-8"?>
<svg version="1.1" xmlns:xlink="http://www.w3.org/1999/xlink" width="40px" height="50px" xmlns="http://www.w3.org/2000/svg">
  <defs>
    <filter x="96px" y="774px" width="40px" height="50px" filterUnits="userSpaceOnUse" id="filter51">
      <feOffset dx="1" dy="1" in="SourceAlpha" result="shadowOffsetInner" />
      <feGaussianBlur stdDeviation="2.5" in="shadowOffsetInner" result="shadowGaussian" />
      <feComposite in2="shadowGaussian" operator="atop" in="SourceAlpha" result="shadowComposite" />
      <feColorMatrix type="matrix" values="0 0 0 0 0  0 0 0 0 0  0 0 0 0 0  0 0 0 0.698039215686274 0  " in="shadowComposite" />
    </filter>
    <g id="widget52">
      <path d="M 115 817.036928468354  C 109.2 807.40734059591  100.5 801.629587872444  100.5 792  C 100.5 786.985714285714  103.4 778.5  115 778.5  C 126.6 778.5  129.5 786.985714285714  129.5 792  C 129.5 801.629587872444  120.8 807.40734059591  115 817.036928468354  Z " fill-rule="nonzero" fill="#009dd9" stroke="none" />
      <path d="M 115 818  C 109 808  100 802  100 792  C 100 786.8  103 778  115 778  C 127 778  130 786.8  130 792  C 130 802  121 808  115 818  Z M 115 816.073856936707  C 120.6 806.81468119182  129 801.259175744887  129 792  C 129 787.171428571429  126.2 779  115 779  C 103.8 779  101 787.171428571429  101 792  C 101 801.259175744887  109.4 806.81468119182  115 816.073856936707  Z " fill-rule="nonzero" fill="#ffffff" stroke="none" />
    </g>
  </defs>
  <g transform="matrix(1 0 0 1 -96 -774 )">
    <use xlink:href="#widget52" filter="url(#filter51)" />
    <use xlink:href="#widget52" />
  </g>
</svg>