<?xml version="1.0" encoding="utf-8"?>
<svg version="1.1" xmlns:xlink="http://www.w3.org/1999/xlink" width="28px" height="21px" xmlns="http://www.w3.org/2000/svg">
  <g transform="matrix(1 0 0 1 -66 -155 )">
    <path d="M 27.8284430122117 9.6796875  C 27.917486431479 9.76917613636364  27.9620081411126 9.88352272727273  27.9620081411126 10.0227272727273  L 27.9620081411126 10.9772727272727  C 27.9620081411126 11.1164772727273  27.917486431479 11.2308238636364  27.8284430122117 11.3203125  C 27.7393995929444 11.4098011363636  27.6256218905473 11.4545454545455  27.4871099050204 11.4545454545455  L 0.51289009497965 11.4545454545455  C 0.374378109452734 11.4545454545455  0.260600407055631 11.4098011363636  0.171556987788329 11.3203125  C 0.0825135685210334 11.2308238636364  0.0379918588873824 11.1164772727273  0.0379918588873824 10.9772727272727  L 0.0379918588873824 10.0227272727273  C 0.0379918588873824 9.88352272727273  0.0825135685210334 9.76917613636364  0.171556987788329 9.6796875  C 0.260600407055631 9.59019886363636  0.374378109452734 9.54545454545454  0.51289009497965 9.54545454545454  L 27.4871099050204 9.54545454545454  C 27.6256218905473 9.54545454545454  27.7393995929444 9.59019886363636  27.8284430122117 9.6796875  Z M 22.4775271370421 18.3899147727273  C 22.9425316598824 17.9225852272727  23.1750339213026 17.3607954545455  23 16.7045454545455  L 23 4.29545454545454  C 23.1750339213026 3.63920454545454  22.9425316598824 3.07741477272727  22.4775271370421 2.61008522727272  C 22.0125226142017 2.14275568181818  21.4535278154681 1.90909090909092  20.8005427408413 2  L 8.45318860244234 2  C 7.80020352781547 1.90909090909092  7.24120872908186 2.14275568181818  6.77620420624152 2.61008522727272  C 6.31119968340118 3.07741477272727  6.078697421981 3.63920454545454  6 4.29545454545454  L 6 16.7045454545455  C 6.078697421981 17.3607954545455  6.31119968340118 17.9225852272727  6.77620420624152 18.3899147727273  C 7.24120872908186 18.8572443181818  7.80020352781547 19.0909090909091  8.45318860244234 19  L 20.8005427408413 19  C 21.4535278154681 19.0909090909091  22.0125226142017 18.8572443181818  22.4775271370421 18.3899147727273  Z M 23.8205987109905 1.26029829545454  C 24.6566174807779 2.10049715909091  25.0746268656716 3.11221590909091  25 4.29545454545454  L 25 16.7045454545455  C 25.0746268656716 17.8877840909091  24.6566174807779 18.8995028409091  23.8205987109905 19.7397017045455  C 22.9845799412031 20.5799005681818  21.97789461782 21  20.8005427408413 21  L 8.45318860244234 21  C 7.27583672546359 21  6.26915140208051 20.5799005681818  5.43313263229308 19.7397017045455  C 4.59711386250566 18.8995028409091  4.17910447761194 17.8877840909091  4.17910447761194 16.7045454545455  L 4.17910447761194 4.29545454545454  C 4.17910447761194 3.11221590909091  4.59711386250566 2.10049715909091  5.43313263229308 1.26029829545454  C 6.26915140208051 0.420099431818185  7.27583672546359 0  8.45318860244234 0  L 20.8005427408413 0  C 21.97789461782 0  22.9845799412031 0.420099431818185  23.8205987109905 1.26029829545454  Z " fill-rule="nonzero" fill="#333333" stroke="none" transform="matrix(1 0 0 1 66 155 )" />
  </g>
</svg>