<?xml version="1.0" encoding="utf-8"?>
<svg version="1.1" xmlns:xlink="http://www.w3.org/1999/xlink" width="16px" height="12px" xmlns="http://www.w3.org/2000/svg">
  <g transform="matrix(1 0 0 1 -371 -76 )">
    <path d="M 1.48989247311763 5.19965217391311  C 1.61276053282845 5.32476696983197  1.81244674798948 5.32631971381283  1.93720430107456 5.20313043478267  C 3.59516769367955 3.60984462831798  5.79532706104416 2.72138547088019  8.08292473118209 2.72139130434789  C 10.3702980845729 2.72149260920477  12.5702047497058 3.60994920713382  14.2279569892466 5.20313043478267  C 14.35279009377 5.32613000115124  14.5523223278928 5.32457845451462  14.6752688172036 5.19965217391311  C 14.6752688172036 5.19965217391311  15.8685591397842 3.98226086956532  15.8685591397842 3.98226086956532  C 15.9308126193356 3.91889861020058  15.9655212639923 3.83307076371104  15.9650046500439 3.74376955044159  C 15.9644880360956 3.65446833717215  15.9287887587453 3.56905670837568  15.8658064516122 3.50643478260878  C 11.5147377225957 -0.708745223375049  4.65042356772545 -0.708745223375049  0.299354838708936 3.50643478260878  C 0.23632660885203 3.56901023458815  0.200565158920888 3.65439592316449  0.199983967413103 3.7436972617971  C 0.199402775905318 3.8329986004296  0.234049763078562 3.91885253733626  0.296258064515461 3.98226086956532  C 0.296258064515461 3.98226086956532  1.48989247311763 5.19965217391311  1.48989247311763 5.19965217391311  Z M 4.23776344085948 8.00104347826093  C 4.36059046069086 8.12535594732629  4.55907451048552 8.12797972059319  4.68507526881653 8.0069565217392  C 5.61604017359775 7.15478034300672  6.82699229222447 6.68261298401281  8.08292473118209 6.68208695652178  C 9.33968786934495 6.6820091134812  10.5516021045328 7.1542168857706  11.4831827956982 8.0069565217392  C 11.6091835540293 8.12797972059319  11.807667603824 8.12535594732629  11.9304946236552 8.00104347826093  C 11.9304946236552 8.00104347826093  13.1224086021499 6.78365217391314  13.1224086021499 6.78365217391314  C 13.1851776421597 6.71979654106721  13.2200054259171 6.63317081380078  13.2191000773509 6.5431554079386  C 13.2181947287846 6.45314000207655  13.1816318122309 6.36724799565732  13.1175913978488 6.30469565217394  C 10.2807410491679 3.6371662654919  5.88751701534678 3.63716626549178  3.05066666666596 6.30469565217394  C 2.98658639820297 6.36724723573131  2.95002577356401 6.4531822786536  2.94918482109103 6.54322677251042  C 2.94834386861793 6.63327126636724  2.98329297350703 6.71988875745185  3.04619354838642 6.78365217391314  C 3.04619354838642 6.78365217391314  4.23776344085948 8.00104347826093  4.23776344085948 8.00104347826093  Z M 8.08292473118209 11.7873853673022  C 8.16890245733732 11.7873853673022  8.25130308193242 11.7525972154624  8.31174193548319 11.6907826086956  C 8.31174193548319 11.6907826086956  10.3735053763434 9.58747826086955  10.3735053763434 9.58747826086955  C 10.4372506885204 9.52423719366  10.4723556358091 9.43720892803385  10.4705319107709 9.34694091035062  C 10.4687081857326 9.25667289266751  10.4301174352238 9.17116607756195  10.3638709677412 9.11060869565217  C 9.04715185558293 7.98481685319637  7.11869760678136 7.98481685319637  5.80197849462298 9.11060869565217  C 5.73568606024585 9.17111738730245  5.6970321253669 9.25659728925174  5.69514325759132 9.34686577050809  C 5.69325438981562 9.43713425176445  5.72829801697146 9.52418998161477  5.79199999999929 9.58747826086955  C 5.79199999999929 9.58747826086955  7.85410752688099 11.6907826086956  7.85410752688099 11.6907826086956  C 7.91454638043163 11.7525972154624  7.99694700502674 11.7873853673022  8.08292473118209 11.7873853673022  Z " fill-rule="nonzero" fill="#000000" stroke="none" transform="matrix(1 0 0 1 371 76 )" />
  </g>
</svg>