<?xml version="1.0" encoding="utf-8"?>
<svg version="1.1" xmlns:xlink="http://www.w3.org/1999/xlink" width="16px" height="20px" xmlns="http://www.w3.org/2000/svg">
  <g transform="matrix(1 0 0 1 -399 -157 )">
    <path d="M 10.2661613268062 17.8599999904956  C 10.2661613268062 19.0424999854685  9.25165544925585 20  8.00043152390685 20  C 6.75046006884031 20  5.73595419128992 19.0425000062204  5.73595419128992 17.8599999904956  C 5.73595419128992 17.8599999904956  10.2661613268062 17.8599999904956  10.2661613268062 17.8599999904956  Z M 1.41491061180636 12.8049999996575  C 1.41491061180636 12.8049999996575  1.41491061180636 9.12499999766533  1.41491061180636 9.12499999766533  C 1.41491061180636 5.49372776864539  4.36447025455368 2.54999999968868  8.00293646447187 2.54999999968868  C 9.750189556088 2.54999999968868  11.4258797099931 3.2427212248781  12.661374219524 4.47577291279447  C 13.8968687290549 5.70882460071084  14.5909623171374 7.381201577507  14.5909623171374 9.12499999766533  C 14.5909623171374 9.12499999766533  14.5897098468549 12.8099999959948  14.5897098468549 12.8099999959948  C 14.5897098468549 12.8099999959948  15.9724437964483 16.0975000053591  15.9724437964483 16.0975000053591  C 16.0299041369832 16.2821761317423  15.9964151893467 16.4830965082861  15.882144162444 16.6392619222422  C 15.7678731355411 16.7954273361984  15.5862989100442 16.8884172391837  15.3925472278077 16.8899999954967  C 15.3925472278077 16.8899999954967  0.609568290288621 16.8899999954967  0.609568290288621 16.8899999954967  C 0.412405137139103 16.8898735669084  0.227462901662079 16.7946409217316  0.113099424468032 16.634352370074  C -0.00126405272612828 16.4740638184164  -0.0309424456070246 16.2684903800485  0.0334291532884663 16.0824999955953  C 0.0334291532884663 16.0824999955953  1.41491061180636 12.8049999996575  1.41491061180636 12.8049999996575  Z M 9.5910765384574 1.5874999888199  C 9.5910765384574 1.5874999888199  6.40978648856321 1.5874999888199  6.40978648856321 1.5874999888199  C 6.40978648856321 0.709999998692638  7.12369804280627 0  8.00043152390685 0  C 8.87966994557235 0  9.5910765592505 0.709999998692638  9.5910765384574 1.5874999888199  Z " fill-rule="nonzero" fill="#252525" stroke="none" transform="matrix(1 0 0 1 399 157 )" />
  </g>
</svg>