<?xml version="1.0" encoding="utf-8"?>
<svg version="1.1" xmlns:xlink="http://www.w3.org/1999/xlink" width="19px" height="7px" xmlns="http://www.w3.org/2000/svg">
  <g transform="matrix(1 0 0 1 -349 -122 )">
    <path d="M 2.05405405405405 5.92307692307692  C 0.919805405405349 5.92307692307692  0 4.95858461538467  0 3.76923076923077  C 0 2.5794461538462  0.919805405405349 1.61538461538462  2.05405405405405 1.61538461538462  C 3.18830270270264 1.61538461538462  4.10810810810811 2.5794461538462  4.10810810810811 3.76923076923077  C 4.10810810810811 4.95858461538467  3.18830270270264 5.92307692307692  2.05405405405405 5.92307692307692  Z M 9.5 7  C 7.6568459459459 7  6.16216216216216 5.43270000000005  6.16216216216216 3.5  C 6.16216216216216 1.5666  7.6568459459459 0  9.5 0  C 11.343154054054 0  12.8378378378378 1.5666  12.8378378378378 3.5  C 12.8378378378378 5.43270000000005  11.343154054054 7  9.5 7  Z M 14.8918918918919 3.76923076923077  C 14.8918918918919 2.5794461538462  15.8116972972972 1.61538461538462  16.9459459459459 1.61538461538462  C 18.0801945945945 1.61538461538462  19 2.5794461538462  19 3.76923076923077  C 19 4.95858461538467  18.0801945945945 5.92307692307692  16.9459459459459 5.92307692307692  C 15.8116972972972 5.92307692307692  14.8918918918919 4.95858461538467  14.8918918918919 3.76923076923077  Z " fill-rule="nonzero" fill="#141f33" stroke="none" transform="matrix(1 0 0 1 349 122 )" />
  </g>
</svg>