<?xml version="1.0" encoding="utf-8"?>
<svg version="1.1" xmlns:xlink="http://www.w3.org/1999/xlink" width="24px" height="10px" preserveAspectRatio="xMinYMid meet" viewBox="1565 1579  24 8" xmlns="http://www.w3.org/2000/svg">
  <path d="M 1601 704  L 1575 704  A 5 5 0 0 0 1570 709 L 1570 1578  A 5 5 0 0 0 1575 1583 L 1587 1583  " stroke-width="2" stroke="#0099cc" fill="none" />
  <path d="M 1599.5 700.5  A 3.5 3.5 0 0 0 1596 704 A 3.5 3.5 0 0 0 1599.5 707.5 A 3.5 3.5 0 0 0 1603 704 A 3.5 3.5 0 0 0 1599.5 700.5 Z M 1579.6 1591  L 1589 1583  L 1579.6 1575  L 1583.2 1583  L 1579.6 1591  Z " fill-rule="nonzero" fill="#0099cc" stroke="none" />
</svg>