<?xml version="1.0" encoding="utf-8"?>
<svg version="1.1" xmlns:xlink="http://www.w3.org/1999/xlink" width="18px" height="10px" preserveAspectRatio="xMinYMid meet" viewBox="985 1575  18 8" xmlns="http://www.w3.org/2000/svg">
  <path d="M 1011 715  L 995 715  A 5 5 0 0 0 990 720 L 990 1574  A 5 5 0 0 0 995 1579 L 1001 1579  " stroke-width="2" stroke="#0099cc" fill="none" />
  <path d="M 1009.5 711.5  A 3.5 3.5 0 0 0 1006 715 A 3.5 3.5 0 0 0 1009.5 718.5 A 3.5 3.5 0 0 0 1013 715 A 3.5 3.5 0 0 0 1009.5 711.5 Z M 993.6 1587  L 1003 1579  L 993.6 1571  L 997.2 1579  L 993.6 1587  Z " fill-rule="nonzero" fill="#0099cc" stroke="none" />
</svg>